<?xml version="1.0" encoding="UTF-8"?>
<!DOCTYPE svg PUBLIC "-//W3C//DTD SVG 1.1//EN"
    "http://www.w3.org/Graphics/SVG/1.1/DTD/svg11.dtd">
<svg xmlns="http://www.w3.org/2000/svg" height="400.0000" stroke-opacity="1" viewBox="0 0 400 400" font-size="1" width="400.0000" xmlns:xlink="http://www.w3.org/1999/xlink" stroke="rgb(0,0,0)" version="1.1">
  <defs>
  </defs>
  <defs>
  </defs>
  <g stroke-linejoin="miter" stroke-opacity="1.0" fill-opacity="1.0" stroke="rgb(0,0,0)" stroke-width="1.6" fill="rgb(0,0,0)" stroke-linecap="butt" stroke-miterlimit="10.0">
    <path d="M 400.0000,200.0000 c 0.0000,-110.4569 -89.5431,-200.0000 -200.0000 -200.0000c -110.4569,-0.0000 -200.0000,89.5431 -200.0000 200.0000c -0.0000,110.4569 89.5431,200.0000 200.0000 200.0000c 110.4569,0.0000 200.0000,-89.5431 200.0000 -200.0000Z"/>
  </g>
  <defs>
  </defs>
  <g stroke-linejoin="miter" stroke-opacity="1.0" fill-opacity="1.0" stroke="rgb(0,0,0)" stroke-width="1.6" fill="rgb(255,255,255)" stroke-linecap="butt" stroke-miterlimit="10.0">
    <path d="M 380.0000,200.0000 c 0.0000,-99.4113 -80.5887,-180.0000 -180.0000 -180.0000c -99.4113,-0.0000 -180.0000,80.5887 -180.0000 180.0000c -0.0000,99.4113 80.5887,180.0000 180.0000 180.0000c 99.4113,0.0000 180.0000,-80.5887 180.0000 -180.0000Z"/>
  </g>
  <defs>
  </defs>
  <g stroke-linejoin="miter" stroke-opacity="1.0" fill-opacity="1.0" stroke="rgb(0,0,0)" stroke-width="1.6" fill="rgb(0,0,0)" stroke-linecap="butt" stroke-miterlimit="10.0">
    <path d="M 360.0000,200.0000 c 0.0000,-88.3656 -71.6344,-160.0000 -160.0000 -160.0000c -88.3656,-0.0000 -160.0000,71.6344 -160.0000 160.0000c -0.0000,88.3656 71.6344,160.0000 160.0000 160.0000c 88.3656,0.0000 160.0000,-71.6344 160.0000 -160.0000Z"/>
  </g>
  <defs>
  </defs>
  <g stroke-linejoin="miter" stroke-opacity="1.0" fill-opacity="1.0" stroke="rgb(0,0,0)" stroke-width="1.6" fill="rgb(255,255,255)" stroke-linecap="butt" stroke-miterlimit="10.0">
    <path d="M 340.0000,200.0000 c 0.0000,-77.3199 -62.6801,-140.0000 -140.0000 -140.0000c -77.3199,-0.0000 -140.0000,62.6801 -140.0000 140.0000c -0.0000,77.3199 62.6801,140.0000 140.0000 140.0000c 77.3199,0.0000 140.0000,-62.6801 140.0000 -140.0000Z"/>
  </g>
  <defs>
  </defs>
  <g stroke-linejoin="miter" stroke-opacity="1.0" fill-opacity="1.0" stroke="rgb(0,0,0)" stroke-width="1.6" fill="rgb(0,0,0)" stroke-linecap="butt" stroke-miterlimit="10.0">
    <path d="M 320.0000,200.0000 c 0.0000,-66.2742 -53.7258,-120.0000 -120.0000 -120.0000c -66.2742,-0.0000 -120.0000,53.7258 -120.0000 120.0000c -0.0000,66.2742 53.7258,120.0000 120.0000 120.0000c 66.2742,0.0000 120.0000,-53.7258 120.0000 -120.0000Z"/>
  </g>
  <defs>
  </defs>
  <g stroke-linejoin="miter" stroke-opacity="1.0" fill-opacity="1.0" stroke="rgb(0,0,0)" stroke-width="1.6" fill="rgb(255,255,255)" stroke-linecap="butt" stroke-miterlimit="10.0">
    <path d="M 300.0000,200.0000 c 0.0000,-55.2285 -44.7715,-100.0000 -100.0000 -100.0000c -55.2285,-0.0000 -100.0000,44.7715 -100.0000 100.0000c -0.0000,55.2285 44.7715,100.0000 100.0000 100.0000c 55.2285,0.0000 100.0000,-44.7715 100.0000 -100.0000Z"/>
  </g>
  <defs>
  </defs>
  <g stroke-linejoin="miter" stroke-opacity="1.0" fill-opacity="1.0" stroke="rgb(0,0,0)" stroke-width="1.6" fill="rgb(0,0,0)" stroke-linecap="butt" stroke-miterlimit="10.0">
    <path d="M 280.0000,200.0000 c 0.0000,-44.1828 -35.8172,-80.0000 -80.0000 -80.0000c -44.1828,-0.0000 -80.0000,35.8172 -80.0000 80.0000c -0.0000,44.1828 35.8172,80.0000 80.0000 80.0000c 44.1828,0.0000 80.0000,-35.8172 80.0000 -80.0000Z"/>
  </g>
  <defs>
  </defs>
  <g stroke-linejoin="miter" stroke-opacity="1.0" fill-opacity="1.0" stroke="rgb(0,0,0)" stroke-width="1.6" fill="rgb(255,255,255)" stroke-linecap="butt" stroke-miterlimit="10.0">
    <path d="M 260.0000,200.0000 c 0.0000,-33.1371 -26.8629,-60.0000 -60.0000 -60.0000c -33.1371,-0.0000 -60.0000,26.8629 -60.0000 60.0000c -0.0000,33.1371 26.8629,60.0000 60.0000 60.0000c 33.1371,0.0000 60.0000,-26.8629 60.0000 -60.0000Z"/>
  </g>
  <defs>
  </defs>
  <g stroke-linejoin="miter" stroke-opacity="1.0" fill-opacity="1.0" stroke="rgb(0,0,0)" stroke-width="1.6" fill="rgb(0,0,0)" stroke-linecap="butt" stroke-miterlimit="10.0">
    <path d="M 240.0000,200.0000 c 0.0000,-22.0914 -17.9086,-40.0000 -40.0000 -40.0000c -22.0914,-0.0000 -40.0000,17.9086 -40.0000 40.0000c -0.0000,22.0914 17.9086,40.0000 40.0000 40.0000c 22.0914,0.0000 40.0000,-17.9086 40.0000 -40.0000Z"/>
  </g>
  <defs>
  </defs>
  <g stroke-linejoin="miter" stroke-opacity="1.0" fill-opacity="1.0" stroke="rgb(0,0,0)" stroke-width="1.6" fill="rgb(255,255,255)" stroke-linecap="butt" stroke-miterlimit="10.0">
    <path d="M 220.0000,200.0000 c 0.0000,-11.0457 -8.9543,-20.0000 -20.0000 -20.0000c -11.0457,-0.0000 -20.0000,8.9543 -20.0000 20.0000c -0.0000,11.0457 8.9543,20.0000 20.0000 20.0000c 11.0457,0.0000 20.0000,-8.9543 20.0000 -20.0000Z"/>
  </g>
</svg>